<svg width="80" height="60" viewBox="0 0 123 100" fill="none" xmlns="http://www.w3.org/2000/svg">
<path d="M69.1529 0H50.8662V1.99466H69.1529V0Z" fill="#868686"/>
<path d="M60.9843 3.98926V25.9396H58.9896V3.98926C54.3148 4.24897 49.9258 6.32203 46.7558 9.76758C43.5857 13.2131 41.8848 17.7594 42.0147 22.4395C42.1447 27.1197 44.0951 31.5646 47.4514 34.829C50.8077 38.0934 55.305 39.9198 59.9869 39.9198C64.6689 39.9198 69.1662 38.0934 72.5225 34.829C75.8787 31.5646 77.8292 27.1197 77.9591 22.4395C78.089 17.7594 76.3881 13.2131 73.2181 9.76758C70.0481 6.32203 65.659 4.24897 60.9843 3.98926Z" fill="#CEB888"/>
<path d="M3.16613 71.6088H1.13076V76.1319H0V66.1178H1.13076V70.5595H3.16613C3.39681 67.9406 5.25578 65.9233 7.90628 65.9233C10.7377 65.9233 12.6419 68.1849 12.6419 71.0932C12.6419 74.0015 10.7106 76.2902 7.87462 76.2902C5.19698 76.3082 3.36515 74.2865 3.16613 71.6088ZM11.484 71.1248C11.484 68.7909 9.96879 66.9727 7.86557 66.9727C5.76236 66.9727 4.30142 68.7819 4.30142 71.1248C4.30142 73.4678 5.80307 75.277 7.89271 75.277C9.98236 75.277 11.4795 73.4859 11.4795 71.1248H11.484Z" fill="#868686"/>
<path d="M18.1736 66.1179H22.4388C22.9135 66.0875 23.3895 66.1519 23.8391 66.3072C24.2887 66.4625 24.7029 66.7056 25.0577 67.0225C25.2681 67.2382 25.4333 67.4937 25.5436 67.7741C25.6539 68.0545 25.707 68.3541 25.6999 68.6554C25.7106 69.1594 25.5632 69.6542 25.2785 70.0703C24.9938 70.4864 24.586 70.803 24.1123 70.9757C25.3019 71.333 26.2608 72.0205 26.2608 73.4227C26.2608 75.1414 24.8134 76.1365 22.6424 76.1365H18.1736V66.1179ZM22.2443 70.5822C23.6012 70.5822 24.5511 69.967 24.5511 68.773C24.5511 67.7869 23.7641 67.1447 22.3303 67.1447H19.2908V70.5596L22.2443 70.5822ZM22.6469 75.1052C24.1621 75.1052 25.1074 74.4313 25.1074 73.296C25.1074 72.1607 24.2028 71.5773 22.4433 71.5773H19.2772V75.1143L22.6469 75.1052Z" fill="#868686"/>
<path d="M31.6614 66.1179H38.8982V67.1492H32.7831V70.5596H38.2515V71.5908H32.7831V75.0826H38.9706V76.1093H31.6614V66.1179Z" fill="#868686"/>
<path d="M42.9011 75.9872L43.1318 75.0826C43.423 75.1818 43.7288 75.2307 44.0364 75.2273C44.8098 75.2273 46.1125 74.775 46.1125 67.9271V66.1179H52.594V76.1365H51.4632V67.1447H47.198V68.2347C47.198 75.2635 45.7687 76.2495 44.2219 76.2495C43.7707 76.2306 43.3252 76.1421 42.9011 75.9872Z" fill="#868686"/>
<path d="M58.5554 66.1179H59.7043V74.4358L65.6837 66.1179H66.7602V76.1365H65.6295V67.8186L59.659 76.1319H58.5554V66.1179Z" fill="#868686"/>
<path d="M72.726 66.1179H76.4756C78.7371 66.1179 80.2252 67.3211 80.2252 69.3248C80.2252 71.4868 78.416 72.604 76.2856 72.604H73.8522V76.1365H72.7214L72.726 66.1179ZM76.3444 71.5727C78.0044 71.5727 79.0944 70.6681 79.0944 69.3383C79.0944 67.9091 78.0224 67.1627 76.3806 67.1627H73.8477V71.5727H76.3444Z" fill="#868686"/>
<path d="M85.4312 66.1179H86.5664V70.5596H92.3469V66.1089H93.4776V76.1274H92.3469V71.6044H86.5664V76.1274H85.4312V66.1179Z" fill="#868686"/>
<path d="M99.4526 66.1178H100.588V69.9941H103.125C105.274 69.9941 107.015 70.8535 107.015 72.9431C107.015 74.9016 105.568 76.1319 103.297 76.1319H99.4572L99.4526 66.1178ZM103.266 75.0825C104.862 75.0825 105.884 74.3679 105.884 72.9476C105.884 71.645 104.853 70.9846 103.193 70.9846H100.588V75.0825H103.266ZM108.3 66.0952H109.43V76.1138H108.3V66.0952Z" fill="#868686"/>
<path d="M115.41 66.1179H122.647V67.1492H116.541V70.5596H122.009V71.5908H116.541V75.0826H122.724V76.1093H115.41V66.1179Z" fill="#868686"/>
<path d="M12.1624 88.7557H8.80176V87.7471H16.6719V88.7783H13.3112V97.743H12.1624V88.7557Z" fill="#868686"/>
<path d="M21.9368 87.7471H25.6864C27.9479 87.7471 29.436 88.9502 29.436 90.9539C29.436 93.1159 27.6268 94.2331 25.5009 94.2331H23.0675V97.7656H21.9368V87.7471ZM25.5552 93.2019C27.2152 93.2019 28.3007 92.2973 28.3007 90.9675C28.3007 89.5382 27.2287 88.7919 25.6095 88.7919H23.0675V93.1747L25.5552 93.2019Z" fill="#868686"/>
<path d="M37.3512 87.6567H38.4096L42.9689 97.7431H41.7612L40.5852 95.0971H35.1304L33.9228 97.7431H32.783L37.3512 87.6567ZM40.142 94.0795L37.8804 88.9684L35.5737 94.0795H40.142Z" fill="#868686"/>
<path d="M46.8227 96.7163H47.8539C48.8128 95.183 49.3691 92.7269 49.3691 89.4794V87.7471H55.9275V96.7344H57.2302L57.0583 100H56.113V97.743H47.9715L47.7725 99.9774H46.8091L46.8227 96.7163ZM54.7968 96.7163V88.7557H50.4592V90.0583C50.4592 92.6501 49.9571 95.3413 49.1294 96.7118L54.7968 96.7163Z" fill="#868686"/>
<path d="M62.0337 87.7471H63.1645V96.065L69.1485 87.7471H70.2249V97.743H69.1077V89.4296L63.1373 97.743H62.0337V87.7471Z" fill="#868686"/>
<path d="M84.373 97.743H76.2043V87.7471H77.3442V96.7344H83.0658V87.7471H84.1966V96.7344H85.4856L85.3138 100H84.3639L84.373 97.743Z" fill="#868686"/>
<path d="M90.298 87.7471H91.4287V96.065L97.4082 87.7471H98.4802V97.743H97.363V89.4296L91.3926 97.743H90.2935L90.298 87.7471Z" fill="#868686"/>
<path d="M104.482 87.7471H105.613V96.065L111.579 87.7471H112.651V97.743H111.534V89.4296L105.568 97.743H104.482V87.7471Z" fill="#868686"/>
</svg>
